<?xml version="1.0" encoding="UTF-8"?>
<svg xmlns="http://www.w3.org/2000/svg" width="148" height="102" viewBox="0 0 148 102" fill="none">
  <g clip-path="url(#clip0_271_1114)">
    <path d="M8.26254 97.7423C8.26254 98.4479 8.12858 99.059 7.86459 99.5755C7.60061 100.092 7.25783 100.518 6.8323 100.849C6.40284 101.18 5.92215 101.428 5.39024 101.59C4.85834 101.756 4.30673 101.834 3.73936 101.834H0.311523V101.42C0.425785 101.42 0.571567 101.409 0.752809 101.389C0.934051 101.369 1.05225 101.342 1.11135 101.314C1.22955 101.263 1.3123 101.188 1.36352 101.089C1.41474 100.991 1.44232 100.872 1.44232 100.731V94.754C1.44232 94.6239 1.41868 94.5017 1.37534 94.3992C1.332 94.2927 1.24137 94.2099 1.11135 94.1469C0.989212 94.0877 0.85919 94.0444 0.721288 94.0168C0.583387 93.9892 0.461245 93.9734 0.358804 93.9655V93.5516H3.97577C4.47221 93.5516 4.96472 93.6304 5.44541 93.7842C5.92609 93.9379 6.34768 94.1469 6.70622 94.4071C7.19085 94.754 7.57303 95.2074 7.84883 95.7672C8.12464 96.327 8.26254 96.9853 8.26254 97.7462V97.7423ZM6.8323 97.7423C6.8323 97.1864 6.75744 96.6818 6.61166 96.2363C6.46194 95.7869 6.24918 95.3966 5.96549 95.0615C5.69757 94.7422 5.3666 94.4938 4.97654 94.3085C4.58647 94.1232 4.15307 94.0325 3.67238 94.0325C3.51478 94.0325 3.33354 94.0325 3.1326 94.0404C2.93165 94.0444 2.78193 94.0523 2.68737 94.0562V100.419C2.68737 100.774 2.78981 101.018 2.9947 101.152C3.19958 101.286 3.51872 101.357 3.94425 101.357C4.43675 101.357 4.87016 101.271 5.24052 101.097C5.61089 100.924 5.91033 100.679 6.13885 100.368C6.3792 100.041 6.5565 99.6622 6.66682 99.2325C6.77714 98.8028 6.8323 98.306 6.8323 97.7423Z" fill="white"></path>
    <path d="M12.9468 101.834H9.81449V101.487C9.90117 101.48 10.0312 101.472 10.1967 101.456C10.3622 101.44 10.4804 101.424 10.5473 101.397C10.6537 101.353 10.7325 101.298 10.7837 101.223C10.835 101.148 10.8586 101.046 10.8586 100.916V95.8775C10.8586 95.7632 10.8389 95.6686 10.8034 95.5898C10.768 95.5109 10.6813 95.4478 10.5473 95.3966C10.4488 95.3572 10.3267 95.3217 10.177 95.2862C10.0272 95.2507 9.90511 95.231 9.81055 95.2231V94.8762H12.9429V95.2231C12.8404 95.2231 12.7222 95.2389 12.5804 95.2586C12.4386 95.2783 12.3164 95.3059 12.214 95.3414C12.0918 95.3808 12.0052 95.4439 11.9658 95.5346C11.9224 95.6213 11.9027 95.7199 11.9027 95.8302V100.865C11.9027 100.971 11.9264 101.07 11.9736 101.152C12.0209 101.235 12.1037 101.302 12.2179 101.35C12.2849 101.377 12.3992 101.405 12.5528 101.436C12.7065 101.468 12.8404 101.484 12.9468 101.487V101.834Z" fill="white"></path>
    <path d="M20.0352 95.7041C20.3426 96.0234 20.5829 96.4098 20.7563 96.8631C20.9296 97.3165 21.0163 97.8172 21.0163 98.3652C21.0163 98.9131 20.9296 99.4178 20.7523 99.8711C20.575 100.321 20.3307 100.707 20.0195 101.022C19.7161 101.338 19.3615 101.578 18.9596 101.748C18.5577 101.917 18.1282 102.004 17.6751 102.004C17.1905 102.004 16.7453 101.913 16.3355 101.732C15.9258 101.551 15.5751 101.298 15.2796 100.975C14.9841 100.66 14.7556 100.273 14.5861 99.8199C14.4167 99.3665 14.334 98.8816 14.334 98.3652C14.334 97.8014 14.4207 97.2968 14.598 96.8513C14.7753 96.4098 15.0196 96.0274 15.3269 95.7041C15.6342 95.3848 15.9888 95.1403 16.3986 94.9669C16.8044 94.7974 17.2299 94.7106 17.6751 94.7106C18.1204 94.7106 18.5695 94.7974 18.9793 94.9708C19.3891 95.1443 19.7397 95.3887 20.0392 95.7001L20.0352 95.7041ZM19.3024 100.636C19.4836 100.34 19.6176 100.001 19.7003 99.6267C19.7831 99.2522 19.8264 98.8304 19.8264 98.3691C19.8264 97.9079 19.7791 97.4545 19.6885 97.0563C19.5979 96.6581 19.46 96.3191 19.2787 96.0352C19.0975 95.7553 18.8729 95.5425 18.6011 95.3848C18.3292 95.231 18.0179 95.1522 17.6712 95.1522C17.2772 95.1522 16.9462 95.2428 16.6704 95.4202C16.3946 95.5976 16.174 95.8421 16.0006 96.1417C15.8351 96.4295 15.7169 96.7646 15.6342 97.1509C15.5554 97.5373 15.516 97.9433 15.516 98.3652C15.516 98.8343 15.5593 99.2601 15.6421 99.6385C15.7288 100.017 15.8627 100.356 16.044 100.648C16.2213 100.936 16.4419 101.16 16.7098 101.322C16.9778 101.484 17.2969 101.566 17.6712 101.566C18.0219 101.566 18.3371 101.484 18.6168 101.322C18.8966 101.156 19.1251 100.928 19.3024 100.636Z" fill="white"></path>
    <path d="M25.5476 102C25.1339 102 24.736 101.917 24.3538 101.756C23.9716 101.59 23.6367 101.357 23.3412 101.05C23.0496 100.742 22.8172 100.368 22.6477 99.9224C22.4744 99.4809 22.3877 98.9802 22.3877 98.4243C22.3877 97.8684 22.4744 97.3638 22.6438 96.9105C22.8132 96.4571 23.0496 96.0668 23.3491 95.7396C23.6446 95.4163 23.9952 95.164 24.4011 94.9905C24.8069 94.8131 25.2363 94.7264 25.6973 94.7264C26.0401 94.7264 26.3514 94.7698 26.6272 94.8526C26.903 94.9353 27.1709 95.0575 27.4191 95.2113L27.6201 94.8762H28.0101L28.0535 97.3559H27.6516C27.6004 97.1154 27.5216 96.8513 27.4152 96.5675C27.3088 96.2836 27.1867 96.0471 27.0488 95.85C26.8912 95.6292 26.706 95.4557 26.4893 95.3296C26.2726 95.2034 26.0283 95.1403 25.7486 95.1403C25.4334 95.1403 25.1378 95.2113 24.866 95.3532C24.5941 95.4951 24.3577 95.7002 24.1607 95.9761C23.9716 96.2403 23.8219 96.5793 23.7155 96.9854C23.6091 97.3954 23.5539 97.8487 23.5539 98.3533C23.5539 98.7988 23.6091 99.2049 23.7234 99.5794C23.8376 99.95 23.9952 100.277 24.2041 100.557C24.4129 100.837 24.6611 101.054 24.9448 101.212C25.2285 101.369 25.5476 101.448 25.9022 101.448C26.1662 101.448 26.4105 101.405 26.6311 101.322C26.8518 101.239 27.0448 101.129 27.2103 100.991C27.3719 100.849 27.5176 100.683 27.6398 100.502C27.7619 100.321 27.8644 100.12 27.9432 99.9027L28.3096 100.08C28.0298 100.77 27.6555 101.263 27.1946 101.558C26.7296 101.854 26.178 102.004 25.5397 102.004L25.5476 102Z" fill="white"></path>
    <path d="M35.3778 99.7844L35.2438 101.834H29.4717V101.487C29.5702 101.48 29.7002 101.468 29.8657 101.444C30.0312 101.42 30.1336 101.401 30.1848 101.377C30.2912 101.33 30.3621 101.267 30.4015 101.188C30.4409 101.109 30.4646 101.01 30.4646 100.888V95.8894C30.4646 95.7829 30.4449 95.6844 30.4094 95.6016C30.3739 95.5188 30.2991 95.4518 30.1848 95.3966C30.0981 95.3532 29.9799 95.3177 29.8302 95.2823C29.6805 95.2507 29.5623 95.231 29.4756 95.2231V94.8762H34.8538V96.5517H34.4874C34.4204 96.3033 34.2825 96.0392 34.0618 95.7593C33.8412 95.4794 33.6363 95.3256 33.4432 95.302C33.3408 95.2901 33.2226 95.2783 33.0808 95.2744C32.9389 95.2704 32.7813 95.2625 32.6001 95.2625H31.5087V98.0261H32.2928C32.5449 98.0261 32.7262 98.0025 32.8444 97.9552C32.9586 97.9079 33.0611 97.829 33.1517 97.7186C33.2226 97.624 33.2856 97.4978 33.3369 97.3402C33.3881 97.1825 33.4196 97.0327 33.4354 96.8907H33.8018V99.6149H33.4354C33.4235 99.4572 33.3881 99.2916 33.329 99.1181C33.2738 98.9447 33.2108 98.8146 33.1517 98.7397C33.0492 98.6135 32.935 98.5307 32.805 98.4913C32.6749 98.4519 32.5055 98.4322 32.2928 98.4322H31.5087V100.518C31.5087 100.727 31.5244 100.892 31.552 101.01C31.5796 101.133 31.6387 101.223 31.7254 101.282C31.8121 101.346 31.9263 101.385 32.0721 101.401C32.2179 101.42 32.4267 101.428 32.6986 101.428H33.1241C33.3014 101.428 33.4472 101.42 33.5693 101.409C33.6915 101.397 33.8215 101.373 33.9555 101.338C34.0894 101.302 34.18 101.259 34.2391 101.2C34.3889 101.042 34.5465 100.805 34.7119 100.486C34.8774 100.167 34.9838 99.9342 35.0271 99.7844H35.3818H35.3778Z" fill="white"></path>
    <path d="M41.0157 98.6451C41.1615 98.8106 41.2718 98.9881 41.3428 99.1812C41.4137 99.3744 41.4491 99.6031 41.4491 99.8593C41.4491 100.474 41.2206 100.979 40.7675 101.377C40.3144 101.775 39.751 101.976 39.0772 101.976C38.766 101.976 38.4547 101.929 38.1474 101.83C37.84 101.732 37.5682 101.618 37.3436 101.48L37.1348 101.838H36.7447L36.6777 99.4572H37.0757C37.1584 99.7529 37.253 100.017 37.3633 100.254C37.4736 100.49 37.6155 100.711 37.7967 100.916C37.9661 101.109 38.1631 101.263 38.3917 101.377C38.6202 101.491 38.8842 101.551 39.1836 101.551C39.4082 101.551 39.6052 101.523 39.7746 101.464C39.944 101.405 40.078 101.322 40.1844 101.215C40.2908 101.109 40.3656 100.979 40.4168 100.833C40.4681 100.687 40.4917 100.522 40.4917 100.328C40.4917 100.049 40.4129 99.7923 40.2553 99.5518C40.0977 99.3113 39.8652 99.13 39.554 99.0038C39.3412 98.921 39.0969 98.8264 38.8251 98.7239C38.5493 98.6214 38.3129 98.5229 38.1159 98.4322C37.7218 98.2548 37.4185 98.0261 37.2018 97.7383C36.9851 97.4505 36.8747 97.08 36.8747 96.6187C36.8747 96.3546 36.9299 96.1062 37.0363 95.8776C37.1427 95.6489 37.2963 95.4439 37.4973 95.2665C37.6864 95.097 37.911 94.9629 38.1671 94.8683C38.4232 94.7737 38.695 94.7225 38.9748 94.7225C39.2939 94.7225 39.5816 94.7698 39.8337 94.8683C40.0859 94.9669 40.3183 95.0812 40.5272 95.2113L40.7281 94.8762H41.1221L41.1615 97.1864H40.7636C40.6926 96.9223 40.6099 96.67 40.5193 96.4255C40.4287 96.1851 40.3144 95.9643 40.1686 95.7672C40.0268 95.5779 39.8574 95.4281 39.6525 95.3138C39.4515 95.2034 39.2033 95.1443 38.9078 95.1443C38.5965 95.1443 38.3326 95.2428 38.1159 95.4439C37.8952 95.645 37.7888 95.8854 37.7888 96.1732C37.7888 96.461 37.8598 96.7212 37.9977 96.9223C38.1395 97.1194 38.3404 97.281 38.6084 97.4111C38.8448 97.5254 39.0812 97.624 39.3097 97.7068C39.5382 97.7896 39.7628 97.8803 39.9795 97.9749C40.1765 98.0577 40.3656 98.1562 40.5469 98.2627C40.7281 98.3691 40.8857 98.4953 41.0197 98.6411L41.0157 98.6451Z" fill="white"></path>
    <path d="M48.7655 99.7844L48.6315 101.834H42.8594V101.487C42.9579 101.48 43.0879 101.468 43.2534 101.444C43.4189 101.42 43.5213 101.401 43.5725 101.377C43.6789 101.33 43.7498 101.267 43.7892 101.188C43.8286 101.109 43.8523 101.01 43.8523 100.888V95.8894C43.8523 95.7829 43.8326 95.6844 43.7971 95.6016C43.7616 95.5188 43.6868 95.4518 43.5725 95.3966C43.4858 95.3532 43.3676 95.3177 43.2179 95.2823C43.0682 95.2507 42.95 95.231 42.8633 95.2231V94.8762H48.2415V96.5517H47.8751C47.8081 96.3033 47.6702 96.0392 47.4495 95.7593C47.2289 95.4794 47.024 95.3256 46.8309 95.302C46.7285 95.2901 46.6103 95.2783 46.4685 95.2744C46.3266 95.2704 46.169 95.2625 45.9878 95.2625H44.8964V98.0261H45.6805C45.9326 98.0261 46.1139 98.0025 46.2321 97.9552C46.3463 97.9079 46.4488 97.829 46.5394 97.7186C46.6103 97.624 46.6733 97.4978 46.7246 97.3402C46.7758 97.1825 46.8073 97.0327 46.8231 96.8907H47.1895V99.6149H46.8231C46.8112 99.4572 46.7758 99.2916 46.7167 99.1181C46.6615 98.9447 46.5985 98.8146 46.5394 98.7397C46.4369 98.6135 46.3227 98.5307 46.1927 98.4913C46.0626 98.4519 45.8932 98.4322 45.6805 98.4322H44.8964V100.518C44.8964 100.727 44.9121 100.892 44.9397 101.01C44.9673 101.133 45.0264 101.223 45.1131 101.282C45.1998 101.346 45.314 101.385 45.4598 101.401C45.6056 101.42 45.8144 101.428 46.0863 101.428H46.5118C46.6891 101.428 46.8349 101.42 46.957 101.409C47.0792 101.397 47.2092 101.373 47.3432 101.338C47.4771 101.302 47.5677 101.259 47.6268 101.2C47.7766 101.042 47.9342 100.805 48.0996 100.486C48.2651 100.167 48.3715 99.9342 48.4148 99.7844H48.7694H48.7655Z" fill="white"></path>
    <path d="M59.294 95.7041C59.6013 96.0234 59.8417 96.4098 60.0151 96.8631C60.1884 97.3165 60.2751 97.8172 60.2751 98.3652C60.2751 98.9131 60.1884 99.4178 60.0111 99.8711C59.8338 100.321 59.5895 100.707 59.2783 101.022C58.9749 101.338 58.6203 101.578 58.2184 101.748C57.8165 101.917 57.387 102.004 56.9339 102.004C56.4493 102.004 56.0041 101.913 55.5943 101.732C55.1846 101.551 54.8339 101.298 54.5384 100.975C54.2429 100.66 54.0144 100.273 53.8449 99.8199C53.6755 99.3665 53.5928 98.8816 53.5928 98.3652C53.5928 97.8014 53.6795 97.2968 53.8568 96.8513C54.0341 96.4098 54.2783 96.0274 54.5857 95.7041C54.893 95.3848 55.2476 95.1403 55.6574 94.9669C56.0632 94.7974 56.4887 94.7106 56.9339 94.7106C57.3792 94.7106 57.8283 94.7974 58.2381 94.9708C58.6479 95.1443 58.9985 95.3887 59.298 95.7001L59.294 95.7041ZM58.5651 100.636C58.7464 100.34 58.8803 100.001 58.9631 99.6267C59.0458 99.2522 59.0891 98.8304 59.0891 98.3691C59.0891 97.9079 59.0419 97.4545 58.9512 97.0563C58.8567 96.6581 58.7227 96.3191 58.5415 96.0352C58.3602 95.7553 58.1356 95.5425 57.8638 95.3848C57.5919 95.231 57.2807 95.1522 56.9339 95.1522C56.5399 95.1522 56.209 95.2428 55.9332 95.4202C55.6574 95.5976 55.4367 95.8421 55.2633 96.1417C55.0979 96.4295 54.9797 96.7646 54.8969 97.1509C54.8181 97.5373 54.7787 97.9433 54.7787 98.3652C54.7787 98.8343 54.8221 99.2601 54.9048 99.6385C54.9915 100.017 55.1254 100.356 55.3067 100.648C55.484 100.936 55.7046 101.16 55.9726 101.322C56.2405 101.484 56.5596 101.566 56.9339 101.566C57.2846 101.566 57.5998 101.484 57.8795 101.322C58.1593 101.156 58.3878 100.928 58.5651 100.636Z" fill="white"></path>
    <path d="M67.1425 96.6187H66.7761C66.7091 96.3585 66.5633 96.0825 66.3466 95.7908C66.1299 95.4991 65.9211 95.3335 65.7202 95.3059C65.6177 95.2941 65.4995 95.2823 65.3616 95.2783C65.2237 95.2704 65.0661 95.2665 64.8888 95.2665H63.7226V98.0616H64.5224C64.7627 98.0616 64.9518 98.0379 65.0858 97.9867C65.2198 97.9354 65.334 97.8605 65.4286 97.7541C65.4956 97.6831 65.5547 97.5688 65.6059 97.419C65.6611 97.2653 65.6965 97.1036 65.7123 96.9302H66.0787V99.6661H65.7123C65.7044 99.5242 65.6689 99.3586 65.6098 99.1773C65.5507 98.9959 65.4916 98.8619 65.4247 98.7791C65.3262 98.6569 65.204 98.5741 65.0543 98.5307C64.9046 98.4874 64.7273 98.4637 64.5184 98.4637H63.7186V100.857C63.7186 100.963 63.7383 101.062 63.7817 101.145C63.825 101.231 63.8999 101.298 64.0062 101.35C64.0535 101.373 64.1599 101.401 64.3254 101.432C64.4869 101.464 64.613 101.484 64.6997 101.487V101.834H61.6855V101.487C61.784 101.48 61.9141 101.472 62.0796 101.456C62.2411 101.44 62.3475 101.424 62.3987 101.401C62.4972 101.357 62.5681 101.294 62.6115 101.212C62.6548 101.129 62.6784 101.026 62.6784 100.908V95.8894C62.6784 95.7829 62.6587 95.6844 62.6233 95.6016C62.5878 95.5188 62.513 95.4518 62.3987 95.3966C62.312 95.3532 62.1938 95.3177 62.0441 95.2823C61.8944 95.2507 61.7762 95.231 61.6895 95.2231V94.8762H67.1425V96.6148V96.6187Z" fill="white"></path>
    <path d="M79.7704 101.834H76.3307V101.42C76.6341 101.401 76.8863 101.361 77.0872 101.302C77.2882 101.243 77.3867 101.172 77.3867 101.085C77.3867 101.05 77.3827 101.007 77.3749 100.955C77.367 100.904 77.3551 100.861 77.3394 100.821L76.6538 98.9644H73.75C73.6397 99.2364 73.553 99.473 73.486 99.674C73.419 99.8751 73.356 100.064 73.3008 100.234C73.2496 100.399 73.2142 100.537 73.1945 100.644C73.1748 100.75 73.1669 100.833 73.1669 100.9C73.1669 101.054 73.289 101.176 73.5333 101.263C73.7776 101.35 74.0534 101.397 74.3607 101.413V101.827H71.2441V101.413C71.3466 101.405 71.4727 101.381 71.6224 101.346C71.776 101.31 71.8982 101.259 71.9967 101.196C72.1503 101.089 72.2725 100.979 72.3592 100.865C72.4458 100.75 72.5286 100.593 72.6113 100.388C73.029 99.3468 73.486 98.1799 73.9864 96.8868C74.4868 95.5898 74.936 94.4386 75.33 93.4254H75.7949L78.5529 100.569C78.612 100.719 78.679 100.845 78.7499 100.936C78.8248 101.03 78.9272 101.121 79.0572 101.212C79.1479 101.267 79.2621 101.31 79.4079 101.35C79.5537 101.385 79.6719 101.409 79.7704 101.413V101.827V101.834ZM76.4411 98.4519L75.1881 95.2389L73.951 98.4519H76.4411Z" fill="white"></path>
    <path d="M87.4653 101.834H85.5938C85.1801 101.184 84.8058 100.62 84.4709 100.147C84.136 99.674 83.7735 99.1852 83.3834 98.6806H82.6703V100.888C82.6703 101.003 82.69 101.105 82.7254 101.192C82.7609 101.279 82.8397 101.346 82.9579 101.389C83.017 101.413 83.1194 101.432 83.2652 101.452C83.411 101.472 83.5371 101.484 83.6395 101.487V101.834H80.7002V101.487C80.779 101.48 80.8933 101.468 81.0391 101.452C81.1888 101.436 81.2912 101.417 81.3503 101.389C81.4488 101.346 81.5198 101.282 81.5631 101.204C81.6064 101.121 81.6301 101.018 81.6301 100.888V95.8578C81.6301 95.7435 81.6143 95.641 81.5789 95.5543C81.5473 95.4676 81.4685 95.4005 81.3503 95.3532C81.2676 95.3256 81.1612 95.298 81.0312 95.2744C80.9012 95.2507 80.7909 95.235 80.6963 95.2271V94.8801H83.9035C84.199 94.8801 84.4748 94.9117 84.7309 94.9708C84.9909 95.0299 85.2234 95.1285 85.4322 95.2625C85.6332 95.3926 85.7947 95.5622 85.9169 95.7751C86.039 95.984 86.0981 96.2402 86.0981 96.5359C86.0981 96.804 86.0587 97.0405 85.976 97.2455C85.8932 97.4505 85.775 97.6279 85.6135 97.7817C85.4677 97.9236 85.2904 98.0458 85.0855 98.1483C84.8806 98.2508 84.6521 98.3376 84.4039 98.4125C84.7467 98.8658 85.0303 99.2482 85.2589 99.5597C85.4874 99.8711 85.7632 100.246 86.0942 100.691C86.236 100.888 86.366 101.03 86.4842 101.125C86.5985 101.219 86.7167 101.294 86.8309 101.353C86.9176 101.397 87.0201 101.428 87.1501 101.452C87.2762 101.476 87.3826 101.487 87.4692 101.491V101.838L87.4653 101.834ZM84.8885 96.6503C84.8885 96.2284 84.7664 95.8973 84.526 95.6489C84.2857 95.4045 83.9429 95.2783 83.5016 95.2783H82.6703V98.2587H83.3125C83.7616 98.2587 84.1399 98.1129 84.4393 97.8251C84.7388 97.5373 84.8885 97.143 84.8885 96.6463V96.6503Z" fill="white"></path>
    <path d="M93.915 99.7647L93.7693 101.834H88.3359V101.487C88.4147 101.48 88.529 101.468 88.6748 101.452C88.8245 101.436 88.9269 101.417 88.986 101.389C89.0846 101.346 89.1555 101.282 89.1988 101.204C89.2421 101.121 89.2658 101.018 89.2658 100.888V95.9091C89.2658 95.7987 89.2461 95.7001 89.2106 95.6134C89.1712 95.5306 89.1003 95.4597 88.986 95.4084C88.9112 95.369 88.8048 95.3296 88.6708 95.2941C88.5369 95.2547 88.4226 95.235 88.3359 95.2271V94.8801H91.2713V95.2271C91.1807 95.2271 91.0625 95.2468 90.9167 95.2783C90.7709 95.3059 90.6645 95.3335 90.6015 95.3572C90.4911 95.3966 90.4163 95.4636 90.3729 95.5582C90.3335 95.6528 90.3099 95.7553 90.3099 95.8618V100.533C90.3099 100.75 90.3217 100.916 90.3414 101.034C90.3611 101.152 90.4123 101.247 90.4911 101.31C90.566 101.369 90.6803 101.409 90.8261 101.424C90.9718 101.44 91.1846 101.452 91.4525 101.452C91.5747 101.452 91.7007 101.452 91.8308 101.444C91.9608 101.436 92.0869 101.424 92.2051 101.405C92.3193 101.385 92.4257 101.357 92.5203 101.322C92.6148 101.286 92.6858 101.243 92.733 101.192C92.867 101.042 93.0246 100.813 93.2019 100.51C93.3792 100.202 93.5013 99.9579 93.5723 99.7686H93.919L93.915 99.7647Z" fill="white"></path>
    <path d="M98.0327 101.834H94.9004V101.487C94.9871 101.48 95.1171 101.472 95.2826 101.456C95.4481 101.44 95.5663 101.424 95.6372 101.397C95.7436 101.353 95.8224 101.298 95.8736 101.223C95.9209 101.148 95.9484 101.046 95.9484 100.916V95.8775C95.9484 95.7632 95.9287 95.6686 95.8933 95.5898C95.8578 95.5109 95.7711 95.4478 95.6372 95.3966C95.5387 95.3572 95.4165 95.3217 95.2668 95.2862C95.1171 95.2507 94.995 95.231 94.9004 95.2231V94.8762H98.0327V95.2231C97.9303 95.2231 97.8121 95.2389 97.6702 95.2586C97.5284 95.2783 97.4063 95.3059 97.3038 95.3414C97.1777 95.3808 97.095 95.4439 97.0556 95.5346C97.0123 95.6213 96.9926 95.7199 96.9926 95.8302V100.865C96.9926 100.971 97.0162 101.07 97.0635 101.152C97.1108 101.235 97.1935 101.302 97.3078 101.35C97.3747 101.377 97.489 101.405 97.6427 101.436C97.7963 101.468 97.9303 101.484 98.0367 101.487V101.834H98.0327Z" fill="white"></path>
    <path d="M106.638 95.2271C106.547 95.2271 106.405 95.2586 106.216 95.3059C106.027 95.3532 105.889 95.4045 105.81 95.4597C105.692 95.5424 105.613 95.7001 105.574 95.9288C105.534 96.1614 105.515 96.4531 105.515 96.8119V101.905H105.089L100.877 96.2126V99.8002C100.877 100.202 100.901 100.51 100.952 100.727C101.003 100.943 101.078 101.097 101.184 101.188C101.259 101.259 101.417 101.326 101.649 101.389C101.882 101.452 102.039 101.484 102.114 101.487V101.834H99.2618V101.487C99.3484 101.48 99.4982 101.448 99.707 101.393C99.9158 101.334 100.046 101.282 100.101 101.239C100.215 101.148 100.294 101.007 100.337 100.821C100.381 100.636 100.4 100.313 100.4 99.8593V96.4334C100.4 96.2836 100.373 96.1338 100.322 95.984C100.27 95.8342 100.199 95.7159 100.109 95.6371C99.9907 95.5306 99.8331 95.436 99.6321 95.3611C99.4312 95.2823 99.2696 95.2428 99.1436 95.235V94.888H101.129L105.038 100.19V96.8828C105.038 96.4768 105.01 96.1653 104.959 95.9485C104.908 95.7317 104.833 95.5858 104.734 95.5149C104.644 95.4518 104.494 95.3926 104.285 95.3335C104.076 95.2744 103.919 95.2428 103.813 95.235V94.888H106.638V95.235V95.2271Z" fill="white"></path>
    <path d="M114.529 99.059C114.45 99.0669 114.344 99.0827 114.214 99.1063C114.08 99.126 113.974 99.1576 113.895 99.197C113.796 99.2482 113.729 99.3153 113.686 99.4059C113.647 99.4966 113.627 99.6031 113.627 99.7213V100.261C113.627 100.656 113.627 100.92 113.635 101.054C113.639 101.192 113.647 101.302 113.651 101.393C113.217 101.59 112.784 101.74 112.354 101.842C111.925 101.949 111.499 102 111.086 102C110.64 102 110.215 101.917 109.801 101.752C109.387 101.586 109.029 101.35 108.722 101.042C108.41 100.731 108.166 100.352 107.981 99.9066C107.8 99.4611 107.705 98.9644 107.705 98.4164C107.705 97.8684 107.792 97.3954 107.969 96.942C108.142 96.4886 108.391 96.0944 108.71 95.7632C109.021 95.436 109.391 95.1837 109.821 94.9984C110.25 94.8171 110.711 94.7264 111.2 94.7264C111.594 94.7264 111.933 94.7737 112.224 94.8683C112.516 94.9629 112.772 95.0773 112.993 95.2113L113.194 94.8762H113.588L113.631 97.3086H113.229C113.162 97.0405 113.075 96.7764 112.973 96.5162C112.87 96.256 112.74 96.0234 112.579 95.8184C112.417 95.6134 112.224 95.4478 111.992 95.3256C111.759 95.2034 111.488 95.1403 111.164 95.1403C110.814 95.1403 110.503 95.2113 110.227 95.3532C109.951 95.4951 109.715 95.708 109.51 95.9879C109.309 96.26 109.155 96.599 109.049 97.0051C108.942 97.4111 108.887 97.8645 108.887 98.3652C108.887 98.8067 108.942 99.2246 109.045 99.6149C109.147 100.005 109.305 100.344 109.51 100.628C109.711 100.92 109.967 101.148 110.27 101.314C110.573 101.48 110.92 101.562 111.306 101.562C111.594 101.562 111.858 101.519 112.094 101.432C112.331 101.346 112.5 101.251 112.599 101.152C112.626 100.983 112.638 100.809 112.642 100.636C112.642 100.462 112.642 100.317 112.642 100.194V99.812C112.642 99.674 112.622 99.5518 112.587 99.4454C112.547 99.3389 112.473 99.2601 112.354 99.2128C112.248 99.1655 112.098 99.126 111.917 99.1024C111.732 99.0787 111.586 99.063 111.484 99.0551V98.6963H114.529V99.0551V99.059Z" fill="white"></path>
    <path d="M121.334 96.7646H120.995C120.968 96.6463 120.913 96.5083 120.838 96.3467C120.763 96.1851 120.676 96.0313 120.582 95.8894C120.483 95.7396 120.377 95.6055 120.259 95.4951C120.14 95.3848 120.03 95.3177 119.924 95.302C119.821 95.2901 119.695 95.2783 119.541 95.2744C119.388 95.2665 119.246 95.2665 119.116 95.2665H118.832V100.829C118.832 100.936 118.856 101.034 118.899 101.125C118.947 101.215 119.025 101.282 119.14 101.334C119.199 101.357 119.321 101.389 119.51 101.428C119.699 101.468 119.845 101.487 119.947 101.491V101.838H116.665V101.491C116.756 101.484 116.898 101.472 117.083 101.452C117.268 101.432 117.402 101.409 117.473 101.377C117.579 101.334 117.662 101.275 117.709 101.192C117.761 101.113 117.784 101.003 117.784 100.872V95.2665H117.501C117.398 95.2665 117.272 95.2665 117.122 95.2744C116.973 95.2783 116.827 95.2901 116.693 95.3059C116.586 95.3177 116.472 95.3848 116.358 95.4991C116.24 95.6134 116.133 95.7475 116.039 95.8933C115.944 96.0392 115.854 96.1969 115.779 96.3625C115.704 96.528 115.653 96.666 115.621 96.7725H115.278V94.8841H121.338V96.7725L121.334 96.7646Z" fill="white"></path>
    <path d="M128.107 95.7041C128.414 96.0234 128.654 96.4098 128.828 96.8631C129.001 97.3165 129.088 97.8172 129.088 98.3652C129.088 98.9131 129.001 99.4178 128.824 99.8711C128.646 100.321 128.402 100.707 128.091 101.022C127.787 101.338 127.433 101.578 127.031 101.748C126.629 101.917 126.2 102.004 125.746 102.004C125.262 102.004 124.817 101.913 124.407 101.732C123.997 101.551 123.646 101.298 123.351 100.975C123.055 100.66 122.827 100.273 122.657 99.8199C122.488 99.3665 122.405 98.8816 122.405 98.3652C122.405 97.8014 122.492 97.2968 122.669 96.8513C122.847 96.4098 123.091 96.0274 123.398 95.7041C123.705 95.3848 124.06 95.1403 124.47 94.9669C124.876 94.7974 125.301 94.7106 125.746 94.7106C126.192 94.7106 126.641 94.7974 127.051 94.9708C127.46 95.1443 127.811 95.3887 128.11 95.7001L128.107 95.7041ZM127.374 100.636C127.555 100.34 127.689 100.001 127.772 99.6267C127.854 99.2522 127.898 98.8304 127.898 98.3691C127.898 97.9079 127.85 97.4545 127.76 97.0563C127.669 96.6581 127.531 96.3191 127.35 96.0352C127.169 95.7553 126.944 95.5425 126.672 95.3848C126.4 95.231 126.089 95.1522 125.742 95.1522C125.348 95.1522 125.018 95.2428 124.742 95.4202C124.466 95.5976 124.245 95.8421 124.072 96.1417C123.91 96.4295 123.788 96.7646 123.705 97.1509C123.627 97.5373 123.587 97.9433 123.587 98.3652C123.587 98.8343 123.631 99.2601 123.713 99.6385C123.796 100.017 123.93 100.356 124.115 100.648C124.293 100.936 124.513 101.16 124.781 101.322C125.049 101.484 125.368 101.566 125.742 101.566C126.093 101.566 126.408 101.484 126.688 101.322C126.968 101.156 127.196 100.928 127.374 100.636Z" fill="white"></path>
    <path d="M137.693 95.2271C137.603 95.2271 137.461 95.2586 137.272 95.3059C137.082 95.3532 136.945 95.4045 136.866 95.4597C136.748 95.5424 136.669 95.7001 136.629 95.9288C136.59 96.1614 136.57 96.4531 136.57 96.8119V101.905H136.145L131.933 96.2126V99.8002C131.933 100.202 131.956 100.51 132.008 100.727C132.059 100.943 132.134 101.097 132.24 101.188C132.315 101.259 132.473 101.326 132.705 101.389C132.938 101.452 133.095 101.484 133.17 101.487V101.834H130.317V101.487C130.404 101.48 130.554 101.448 130.763 101.393C130.971 101.334 131.101 101.282 131.157 101.239C131.271 101.148 131.35 101.007 131.393 100.821C131.436 100.636 131.456 100.313 131.456 99.8593V96.4334C131.456 96.2836 131.429 96.1338 131.377 95.984C131.326 95.8342 131.255 95.7159 131.165 95.6371C131.046 95.5306 130.889 95.436 130.688 95.3611C130.487 95.2823 130.325 95.2428 130.199 95.235V94.888H132.185L136.094 100.19V96.8828C136.094 96.4768 136.066 96.1653 136.015 95.9485C135.964 95.7317 135.889 95.5858 135.79 95.5149C135.7 95.4518 135.55 95.3926 135.341 95.3335C135.132 95.2744 134.975 95.2428 134.868 95.235V94.888H137.693V95.235V95.2271Z" fill="white"></path>
    <path d="M6.20163 63.1483C5.38604 63.1483 4.60592 62.9867 3.86125 62.6673C3.11264 62.348 2.45071 61.8828 1.87546 61.2796C1.30416 60.6765 0.85105 59.9392 0.508266 59.068C0.169422 58.1967 0 57.2151 0 56.1231C0 55.031 0.165482 54.0415 0.500386 53.1505C0.83529 52.2596 1.29628 51.4948 1.88334 50.8522C2.46647 50.2174 3.15598 49.7247 3.95187 49.3777C4.74776 49.0308 5.59487 48.8573 6.50108 48.8573C7.17483 48.8573 7.78159 48.9401 8.32926 49.1057C8.87299 49.2713 9.39307 49.5078 9.88558 49.8074L10.2796 49.153H11.0479L11.1346 54.0257H10.3466C10.2441 53.5487 10.0905 53.0362 9.88558 52.4803C9.6807 51.9245 9.44035 51.4553 9.16455 51.069C8.85723 50.6314 8.4908 50.2923 8.06922 50.044C7.64763 49.7956 7.16301 49.6734 6.61928 49.6734C5.99675 49.6734 5.41756 49.8114 4.88566 50.0873C4.34981 50.3633 3.88883 50.7733 3.49876 51.3095C3.1284 51.8299 2.83683 52.4922 2.62407 53.2964C2.41131 54.1006 2.30887 54.9955 2.30887 55.9851C2.30887 56.8603 2.41919 57.6606 2.63983 58.3899C2.86047 59.1192 3.17568 59.7618 3.58544 60.3138C3.99521 60.8578 4.47983 61.2875 5.04326 61.595C5.60275 61.9025 6.22921 62.0563 6.92266 62.0563C7.44275 62.0563 7.91949 61.9735 8.35684 61.8118C8.79419 61.6502 9.17243 61.4334 9.49157 61.1614C9.81072 60.8775 10.0944 60.5582 10.3387 60.1994C10.583 59.8407 10.78 59.4464 10.9336 59.0246L11.6547 59.3715C11.1031 60.7277 10.3741 61.6936 9.46005 62.277C8.5499 62.8566 7.46639 63.1483 6.20951 63.1483H6.20163Z" fill="white"></path>
    <path d="M24.8575 62.8211H19.8891V62.2219C20.3265 62.1943 20.689 62.1391 20.9805 62.0523C21.2682 61.9695 21.4139 61.8631 21.4139 61.7409C21.4139 61.6896 21.41 61.6305 21.3982 61.5556C21.3864 61.4807 21.3706 61.4176 21.347 61.3624L20.358 58.6816H16.1619C16.0042 59.0759 15.8782 59.4189 15.7797 59.7106C15.6812 60.0023 15.5905 60.2704 15.5157 60.5188C15.4408 60.7592 15.3935 60.9564 15.362 61.1101C15.3344 61.2639 15.3187 61.3861 15.3187 61.4807C15.3187 61.7054 15.496 61.8789 15.8506 62.0011C16.2052 62.1233 16.6031 62.1982 17.0484 62.2219V62.8211H12.5488V62.2219C12.6946 62.21 12.8759 62.1785 13.0965 62.1233C13.3171 62.0681 13.4944 61.9971 13.6363 61.9065C13.8609 61.7567 14.0342 61.595 14.1603 61.4294C14.2824 61.2639 14.4046 61.0352 14.5228 60.7435C15.1256 59.2454 15.7875 57.5581 16.5086 55.6894C17.2335 53.8207 17.8797 52.1531 18.4471 50.6945H19.1208L23.1042 61.0076C23.187 61.2284 23.2855 61.4018 23.3918 61.5398C23.4982 61.6778 23.6479 61.8079 23.8371 61.9341C23.9671 62.0129 24.1326 62.0799 24.3414 62.1312C24.5502 62.1864 24.7236 62.214 24.8615 62.2179V62.8171L24.8575 62.8211ZM20.0507 57.9326L18.2422 53.2925L16.4574 57.9326H20.0507Z" fill="white"></path>
    <path d="M35.8667 54.1085H35.2875C35.2363 53.9075 35.1456 53.667 35.0117 53.3871C34.8777 53.1072 34.7319 52.847 34.5665 52.5986C34.397 52.3384 34.2119 52.1137 34.0148 51.9205C33.8139 51.7274 33.6208 51.617 33.4357 51.5894C33.2623 51.5657 33.0417 51.55 32.7777 51.5381C32.5137 51.5263 32.2694 51.5224 32.0448 51.5224H31.5563V61.0865C31.5563 61.2717 31.5957 61.4413 31.6745 61.595C31.7533 61.7488 31.8912 61.867 32.0882 61.9538C32.1906 61.9932 32.3994 62.0484 32.7225 62.1154C33.0456 62.1824 33.2978 62.2179 33.4751 62.2258V62.825H27.8329V62.2258C27.9905 62.214 28.2309 62.1903 28.5539 62.1588C28.877 62.1233 29.1016 62.0839 29.2237 62.0326C29.4089 61.9617 29.5468 61.8552 29.6335 61.7172C29.7202 61.5793 29.7635 61.394 29.7635 61.1653V51.5263H29.275C29.1016 51.5263 28.8849 51.5302 28.6249 51.5381C28.3648 51.546 28.1205 51.5657 27.8841 51.5933C27.699 51.617 27.5059 51.7274 27.3089 51.9245C27.1119 52.1216 26.9267 52.3502 26.7573 52.6026C26.5879 52.8549 26.4381 53.1229 26.3121 53.4068C26.182 53.6906 26.0914 53.9232 26.0441 54.1125H25.4531V50.8679H35.8706V54.1125L35.8667 54.1085Z" fill="white"></path>
    <path d="M50.0544 62.8211H45.0939V62.2218C45.2278 62.21 45.4248 62.1943 45.6809 62.1706C45.9371 62.1469 46.1104 62.1154 46.205 62.0681C46.3744 62.0011 46.4965 61.8986 46.5753 61.7606C46.6541 61.6226 46.6935 61.4452 46.6935 61.2244V56.9707H41.075V61.1338C41.075 61.3309 41.1066 61.4965 41.1735 61.6305C41.2366 61.7645 41.3666 61.8828 41.5557 61.9853C41.6503 62.0366 41.8197 62.0878 42.064 62.1351C42.3083 62.1864 42.5013 62.214 42.6392 62.2179V62.8171H37.6787V62.2179C37.8127 62.2061 38.0097 62.1903 38.2658 62.1667C38.5219 62.143 38.6952 62.1115 38.7937 62.0642C38.9632 61.9971 39.0853 61.8946 39.1641 61.7566C39.2429 61.6187 39.2823 61.4413 39.2823 61.2205V52.5907C39.2823 52.4133 39.2469 52.2477 39.172 52.0979C39.0971 51.9481 38.971 51.8338 38.7937 51.7471C38.6401 51.6722 38.4588 51.6091 38.2421 51.5539C38.0254 51.4987 37.8403 51.4632 37.6827 51.4514V50.8522H42.6432V51.4514C42.4856 51.4593 42.2925 51.4829 42.0679 51.5263C41.8433 51.5697 41.67 51.613 41.5597 51.6525C41.3705 51.7195 41.2405 51.8338 41.1775 51.9875C41.1144 52.1452 41.079 52.3148 41.079 52.5001V56.2058H46.6975V52.5828C46.6975 52.4054 46.662 52.2399 46.5872 52.0901C46.5123 51.9402 46.3862 51.8259 46.2089 51.7392C46.0592 51.6643 45.874 51.6012 45.6573 51.546C45.4406 51.4908 45.2554 51.4553 45.0978 51.4435V50.8443H50.0583V51.4435C49.9007 51.4514 49.7077 51.475 49.4831 51.5184C49.2585 51.5618 49.0851 51.6051 48.9748 51.6446C48.7818 51.7116 48.6557 51.8259 48.5926 51.9797C48.5296 52.1374 48.4941 52.3069 48.4941 52.4922V61.1141C48.4941 61.3112 48.5257 61.4767 48.5926 61.6108C48.6596 61.7448 48.7857 61.8631 48.9748 61.9656C49.0694 62.0168 49.2388 62.0681 49.4831 62.1154C49.7274 62.1667 49.9204 62.1943 50.0583 62.1982V62.7974L50.0544 62.8211Z" fill="white"></path>
    <path d="M62.2492 52.2793C62.7771 52.8312 63.1908 53.4935 63.4863 54.2702C63.7818 55.0468 63.9316 55.9102 63.9316 56.8524C63.9316 57.7946 63.7818 58.6659 63.4785 59.4386C63.1751 60.2152 62.7535 60.8736 62.2137 61.4176C61.6897 61.9577 61.0829 62.3717 60.3934 62.6634C59.7039 62.9551 58.9671 63.101 58.187 63.101C57.3556 63.101 56.5873 62.9472 55.882 62.6319C55.1768 62.3204 54.5739 61.8868 54.0657 61.3309C53.5614 60.7868 53.1634 60.1245 52.8758 59.3479C52.5882 58.5712 52.4424 57.7355 52.4424 56.8484C52.4424 55.8786 52.5921 55.0113 52.8955 54.2505C53.1989 53.4896 53.6165 52.8312 54.1484 52.2753C54.6764 51.7234 55.291 51.3016 55.9884 51.0099C56.6858 50.7181 57.4187 50.5723 58.183 50.5723C58.9474 50.5723 59.7196 50.7221 60.4249 51.0177C61.1262 51.3174 61.733 51.7352 62.2452 52.2753L62.2492 52.2793ZM60.9962 60.7592C61.3114 60.2467 61.54 59.6712 61.6818 59.0246C61.8236 58.3781 61.8985 57.6566 61.8985 56.8603C61.8985 56.0639 61.8197 55.2873 61.6582 54.6013C61.4966 53.9154 61.2641 53.3319 60.9568 52.847C60.6495 52.37 60.2594 51.9994 59.7945 51.7313C59.3296 51.4632 58.7937 51.3292 58.1948 51.3292C57.5211 51.3292 56.9498 51.4829 56.477 51.7944C56.0042 52.1019 55.622 52.5158 55.3226 53.0323C55.0428 53.5251 54.834 54.1046 54.6961 54.7669C54.5582 55.4292 54.4912 56.127 54.4912 56.8563C54.4912 57.6645 54.5661 58.3938 54.7118 59.0483C54.8576 59.7027 55.0862 60.2783 55.4014 60.7829C55.7047 61.2757 56.0869 61.662 56.5479 61.9419C57.0089 62.2218 57.5566 62.3598 58.1988 62.3598C58.8016 62.3598 59.3414 62.2179 59.826 61.938C60.3067 61.6581 60.7007 61.2639 61.0041 60.7592H60.9962Z" fill="white"></path>
    <path d="M75.8889 59.2651L75.6367 62.8211H66.2988V62.2218C66.4328 62.21 66.6298 62.1903 66.8859 62.1627C67.142 62.1351 67.3193 62.0996 67.4217 62.0523C67.5912 61.9774 67.7133 61.871 67.7882 61.733C67.863 61.5911 67.9024 61.4137 67.9024 61.1929V52.6302C67.9024 52.4409 67.8709 52.2714 67.8039 52.1255C67.7409 51.9797 67.6109 51.8614 67.4217 51.7707C67.2917 51.7037 67.1105 51.6367 66.878 51.5736C66.6456 51.5105 66.4525 51.4711 66.3028 51.4593V50.86H71.346V51.4593C71.1884 51.4672 70.9835 51.4948 70.7353 51.5421C70.4871 51.5933 70.3059 51.6367 70.1916 51.6761C70.0025 51.7431 69.8725 51.8575 69.8015 52.023C69.7306 52.1847 69.6951 52.3581 69.6951 52.5434V60.574C69.6951 60.9445 69.7148 61.2323 69.7503 61.4373C69.7858 61.6423 69.8724 61.8 70.0064 61.9143C70.1364 62.0168 70.3295 62.0799 70.5817 62.1115C70.8378 62.143 71.1963 62.1588 71.6573 62.1588C71.8661 62.1588 72.0828 62.1548 72.3074 62.143C72.532 62.1312 72.7447 62.1075 72.9457 62.076C73.1427 62.0405 73.3239 61.9971 73.4894 61.938C73.6549 61.8789 73.777 61.804 73.8558 61.7133C74.0844 61.4531 74.3523 61.0628 74.6596 60.5385C74.9669 60.0141 75.1758 59.5884 75.294 59.2612H75.8928L75.8889 59.2651Z" fill="white"></path>
    <path d="M82.7884 62.8211H77.4062V62.2218C77.556 62.21 77.7766 62.1943 78.0642 62.1706C78.3519 62.1469 78.5528 62.1154 78.671 62.0681C78.8562 61.9932 78.9901 61.8946 79.0768 61.7685C79.1635 61.6423 79.2029 61.4649 79.2029 61.2402V52.5789C79.2029 52.3818 79.1714 52.2162 79.1083 52.0861C79.0453 51.956 78.8995 51.8417 78.671 51.755C78.5016 51.6879 78.2888 51.6249 78.0367 51.5657C77.7806 51.5066 77.5717 51.4711 77.4102 51.4593V50.86H82.7923V51.4593C82.6189 51.4672 82.4101 51.4869 82.1698 51.5224C81.9294 51.5578 81.7167 51.6051 81.5394 51.6603C81.3266 51.7274 81.1808 51.8377 81.1099 51.9876C81.035 52.1374 80.9996 52.3069 80.9996 52.4922V61.1456C80.9996 61.3309 81.039 61.4965 81.1217 61.6384C81.2045 61.7803 81.3424 61.8946 81.5394 61.9814C81.6576 62.0247 81.8506 62.076 82.1146 62.1272C82.3786 62.1785 82.6071 62.21 82.7923 62.214V62.8132L82.7884 62.8211Z" fill="white"></path>
    <path d="M90.4079 63.1089C89.6947 63.1089 89.0131 62.9669 88.359 62.687C87.705 62.4071 87.1258 62.0011 86.6215 61.4728C86.1211 60.9445 85.7232 60.298 85.4276 59.5371C85.1321 58.7763 84.9824 57.9168 84.9824 56.9628C84.9824 56.0087 85.1282 55.1414 85.4198 54.3608C85.7113 53.5842 86.1172 52.914 86.6333 52.3502C87.1455 51.7944 87.7483 51.3647 88.4418 51.0611C89.1352 50.7575 89.8799 50.6077 90.6719 50.6077C91.2589 50.6077 91.7948 50.6826 92.2715 50.8285C92.7483 50.9744 93.2014 51.1794 93.6348 51.4435L93.9815 50.8719H94.6552L94.7301 55.1375H94.0406C93.95 54.7235 93.816 54.2702 93.6348 53.7853C93.4575 53.3003 93.2447 52.8864 93.0044 52.5513C92.7364 52.1689 92.4173 51.8693 92.0469 51.6525C91.6766 51.4356 91.255 51.3292 90.7782 51.3292C90.2345 51.3292 89.7302 51.4514 89.2613 51.6919C88.7924 51.9324 88.3866 52.2911 88.0478 52.7642C87.7208 53.2176 87.4686 53.7971 87.2834 54.5028C87.0982 55.2045 87.0037 55.989 87.0037 56.8563C87.0037 57.6211 87.1022 58.3229 87.2952 58.9615C87.4883 59.6002 87.7641 60.16 88.1226 60.6449C88.4812 61.1219 88.9067 61.4965 89.3953 61.7685C89.8838 62.0405 90.4354 62.1745 91.0383 62.1745C91.4914 62.1745 91.909 62.1036 92.2912 61.9617C92.6734 61.8197 93.0044 61.6305 93.2841 61.394C93.5638 61.1456 93.8121 60.8657 94.0248 60.5503C94.2376 60.2349 94.411 59.8919 94.5449 59.5213L95.1753 59.8249C94.6946 61.0116 94.0524 61.8552 93.2565 62.3638C92.4606 62.8723 91.5111 63.1246 90.4118 63.1246L90.4079 63.1089Z" fill="white"></path>
    <path d="M8.45965 87.3345C7.36038 87.3345 6.30444 87.1177 5.29185 86.684C4.27926 86.2504 3.38881 85.6235 2.60868 84.8075C1.83643 83.9914 1.22178 82.994 0.760797 81.8153C0.299812 80.6365 0.0712891 79.3119 0.0712891 77.8335C0.0712891 76.3551 0.295872 75.0187 0.748977 73.8123C1.19814 72.6099 1.82461 71.5731 2.6205 70.7058C3.40851 69.8463 4.3423 69.1801 5.41399 68.7109C6.48963 68.2418 7.63618 68.0053 8.85759 68.0053C9.76775 68.0053 10.5912 68.1196 11.328 68.3443C12.0648 68.569 12.7661 68.8883 13.4359 69.2944L13.9678 68.4074H15.008L15.1262 74.995H14.0585C13.9206 74.3524 13.7117 73.6546 13.4359 72.9056C13.1601 72.1565 12.8331 71.5179 12.4627 70.9975C12.0451 70.4061 11.5526 69.9449 10.9813 69.6098C10.41 69.2747 9.75593 69.1091 9.01914 69.1091C8.17991 69.1091 7.39584 69.2944 6.67481 69.6689C5.94984 70.0434 5.32337 70.5954 4.79541 71.3247C4.29108 72.0304 3.89707 72.9253 3.61339 74.0094C3.32577 75.0975 3.18393 76.3078 3.18393 77.6443C3.18393 78.827 3.33365 79.9111 3.63309 80.8967C3.93254 81.8823 4.35806 82.7496 4.91361 83.4947C5.46915 84.2319 6.1232 84.8114 6.88363 85.2293C7.64012 85.6472 8.48723 85.8561 9.42496 85.8561C10.1263 85.8561 10.7725 85.7458 11.3595 85.525C11.9505 85.3042 12.4588 85.0085 12.8922 84.6458C13.3256 84.2634 13.7078 83.8298 14.0348 83.3449C14.3658 82.86 14.6337 82.3278 14.8425 81.7561L15.8197 82.2253C15.075 84.0545 14.086 85.3634 12.8567 86.1518C11.6274 86.9363 10.1617 87.3306 8.46359 87.3306L8.45965 87.3345Z" fill="white"></path>
    <path d="M35.6102 86.893H28.9043V86.0848C29.0855 86.069 29.3495 86.0454 29.6962 86.0178C30.0429 85.9862 30.2794 85.9429 30.4094 85.8798C30.6379 85.7891 30.8034 85.6511 30.9098 85.4619C31.0161 85.2766 31.0674 85.0361 31.0674 84.7405V78.9886H23.4749V84.6143C23.4749 84.8784 23.5182 85.1032 23.6049 85.2884C23.6916 85.4737 23.865 85.6314 24.125 85.7655C24.255 85.8325 24.4835 85.9035 24.8145 85.9705C25.1455 86.0375 25.4055 86.0769 25.5946 86.0848V86.893H18.8887V86.0848C19.0699 86.069 19.3339 86.0454 19.6806 86.0178C20.0273 85.9862 20.2637 85.9429 20.3938 85.8798C20.6223 85.7891 20.7878 85.6511 20.8942 85.4619C21.0005 85.2766 21.0518 85.0361 21.0518 84.7405V73.0751C21.0518 72.8307 21.0005 72.6099 20.902 72.4088C20.8035 72.2078 20.6341 72.0501 20.3898 71.9358C20.1849 71.8372 19.9367 71.7505 19.6452 71.6756C19.3536 71.6007 19.1014 71.5534 18.8887 71.5376V70.7294H25.5946V71.5376C25.3819 71.5455 25.1218 71.581 24.8145 71.6401C24.5072 71.6992 24.2787 71.7584 24.125 71.8096C23.865 71.9003 23.6955 72.054 23.6049 72.2669C23.5143 72.4798 23.4749 72.7124 23.4749 72.9608V77.9715H31.0674V73.0712C31.0674 72.8267 31.0161 72.606 30.9176 72.4049C30.8191 72.2038 30.6497 72.0462 30.4054 71.9318C30.2005 71.8333 29.9523 71.7465 29.6608 71.6716C29.3692 71.5967 29.117 71.5494 28.9043 71.5336V70.7255H35.6102V71.5336C35.3975 71.5415 35.1374 71.577 34.8301 71.6361C34.5228 71.6953 34.2943 71.7544 34.1406 71.8057C33.8806 71.8963 33.7111 72.0501 33.6205 72.263C33.5338 72.4759 33.4905 72.7085 33.4905 72.9568V84.6104C33.4905 84.8745 33.5338 85.0992 33.6205 85.2845C33.7072 85.4659 33.8806 85.6275 34.1406 85.7615C34.2706 85.8285 34.4991 85.8995 34.8301 85.9665C35.1611 86.0335 35.4211 86.073 35.6102 86.0809V86.889V86.893Z" fill="white"></path>
    <path d="M54.3488 86.893H47.635V86.0848C48.226 86.0454 48.7185 85.9705 49.1086 85.8561C49.4986 85.7418 49.6956 85.5999 49.6956 85.4343C49.6956 85.3673 49.6877 85.2806 49.672 85.182C49.6562 85.0834 49.6326 84.9967 49.605 84.9218L48.2654 81.2988H42.5957C42.3829 81.831 42.2095 82.2923 42.0756 82.6904C41.9416 83.0847 41.8234 83.4513 41.717 83.7825C41.6185 84.1097 41.5515 84.3738 41.5121 84.5788C41.4727 84.7838 41.457 84.9494 41.457 85.0795C41.457 85.3831 41.6973 85.6196 42.1741 85.7852C42.6508 85.9508 43.1906 86.0493 43.7895 86.0808V86.889H37.7061V86.0808C37.9031 86.0651 38.1513 86.0217 38.4468 85.9507C38.7423 85.8798 38.9866 85.7812 39.1757 85.659C39.4791 85.454 39.7155 85.2411 39.881 85.0164C40.0464 84.7917 40.2119 84.4842 40.3695 84.086C41.1812 82.0597 42.0756 79.781 43.0566 77.25C44.0377 74.723 44.9085 72.468 45.6768 70.4968H46.5869L51.973 84.4408C52.0872 84.7365 52.2172 84.977 52.3591 85.1583C52.5049 85.3397 52.7058 85.521 52.9619 85.6945C53.1353 85.8009 53.3638 85.8916 53.6435 85.9626C53.9233 86.0335 54.1597 86.073 54.3488 86.0808V86.889V86.893ZM47.8477 80.2856L45.401 74.0134L42.9897 80.2856H47.8477Z" fill="white"></path>
    <path d="M72.0637 86.893H67.7139C66.7525 85.3831 65.8818 84.0742 65.1016 82.9743C64.3254 81.8744 63.4823 80.739 62.5721 79.5681H60.9173V84.6932C60.9173 84.9573 60.9606 85.1938 61.0434 85.3949C61.1261 85.5959 61.3034 85.7497 61.5792 85.8561C61.7171 85.9074 61.9535 85.9586 62.2963 86.006C62.6391 86.0533 62.9267 86.0769 63.1631 86.0848V86.893H56.3311V86.0848C56.5123 86.069 56.7763 86.0414 57.123 86.006C57.4698 85.9665 57.7101 85.9192 57.8441 85.8561C58.0726 85.7576 58.2381 85.6117 58.3405 85.4225C58.443 85.2333 58.4942 84.9888 58.4942 84.6932V73.0041C58.4942 72.74 58.4548 72.5035 58.3799 72.2985C58.305 72.0935 58.1238 71.9397 57.8441 71.8293C57.6549 71.7623 57.4067 71.6992 57.1033 71.6401C56.7999 71.5849 56.5399 71.5455 56.3271 71.5336V70.7255H63.7857C64.4673 70.7255 65.1095 70.7964 65.7084 70.9344C66.3073 71.0763 66.851 71.301 67.3356 71.6125C67.8045 71.916 68.1827 72.3142 68.4625 72.8031C68.7422 73.2919 68.8841 73.8833 68.8841 74.5732C68.8841 75.1961 68.7895 75.748 68.6004 76.225C68.4113 76.702 68.1315 77.116 67.7572 77.4669C67.4144 77.7941 67.0047 78.0779 66.5279 78.3145C66.0512 78.551 65.5232 78.756 64.944 78.9255C65.7399 79.9821 66.4018 80.8691 66.9298 81.5905C67.4578 82.312 68.1039 83.1911 68.8723 84.224C69.2072 84.6774 69.5066 85.0164 69.7785 85.2333C70.0464 85.4501 70.3143 85.6275 70.5822 85.7615C70.7792 85.8601 71.0275 85.935 71.323 85.9902C71.6185 86.0454 71.8667 86.073 72.0637 86.0809V86.889V86.893ZM66.0748 74.8452C66.0748 73.8675 65.7951 73.0909 65.2317 72.5192C64.6682 71.9476 63.8763 71.6598 62.8519 71.6598H60.9173V78.5865H62.4106C63.4586 78.5865 64.3294 78.2514 65.0307 77.5812C65.732 76.911 66.0788 76.0003 66.0788 74.8452H66.0748Z" fill="white"></path>
    <path d="M81.1493 86.893H73.8721V86.0848C74.077 86.069 74.3725 86.0454 74.7586 86.0178C75.1447 85.9902 75.4205 85.9429 75.5781 85.8798C75.8263 85.7812 76.0115 85.6472 76.1258 85.4737C76.24 85.3042 76.2952 85.0637 76.2952 84.7602V73.0475C76.2952 72.7834 76.2519 72.5587 76.1691 72.3812C76.0864 72.2038 75.8894 72.054 75.5781 71.9318C75.3496 71.8411 75.062 71.7544 74.7192 71.6756C74.3725 71.5967 74.0888 71.5494 73.8721 71.5336V70.7255H81.1493V71.5336C80.9129 71.5415 80.6332 71.5691 80.3062 71.6204C79.9791 71.6716 79.6955 71.7308 79.4512 71.8096C79.1635 71.9003 78.9705 72.0501 78.872 72.2551C78.7735 72.4601 78.7223 72.6887 78.7223 72.9371V84.638C78.7223 84.8903 78.7774 85.111 78.8877 85.3042C78.9981 85.4974 79.1872 85.6511 79.4512 85.7655C79.6088 85.8246 79.8688 85.8916 80.2313 85.9665C80.5899 86.0375 80.8972 86.0769 81.1493 86.0848V86.893Z" fill="white"></path>
    <path d="M97.7135 75.1133H96.9295C96.8625 74.8413 96.7364 74.514 96.5591 74.1395C96.3818 73.765 96.1809 73.4102 95.9602 73.0751C95.7317 72.7242 95.4835 72.4207 95.2116 72.1565C94.9437 71.8963 94.6797 71.7465 94.4315 71.7071C94.1951 71.6756 93.8996 71.6519 93.541 71.6401C93.1825 71.6243 92.8515 71.6164 92.5481 71.6164H91.8862V84.5473C91.8862 84.7996 91.9374 85.0283 92.0438 85.2372C92.1502 85.4461 92.3354 85.6078 92.6033 85.7221C92.7412 85.7733 93.0249 85.8483 93.4622 85.9389C93.8996 86.0296 94.2384 86.0808 94.4827 86.0887V86.8969H86.8548V86.0887C87.0675 86.073 87.3906 86.0414 87.828 85.9981C88.2653 85.9547 88.5647 85.8956 88.7342 85.8285C88.9863 85.73 89.1676 85.5881 89.2858 85.4028C89.404 85.2175 89.4631 84.9691 89.4631 84.6577V71.6243H88.8011C88.5647 71.6243 88.2732 71.6322 87.9225 71.6401C87.5718 71.6519 87.2409 71.6756 86.9217 71.715C86.6735 71.7465 86.4095 71.8963 86.1416 72.1644C85.8737 72.4325 85.6215 72.74 85.3969 73.083C85.1684 73.426 84.9675 73.7887 84.7941 74.1711C84.6208 74.5535 84.4986 74.8728 84.4316 75.1212H83.6357V70.7333H97.7214V75.1212L97.7135 75.1133Z" fill="white"></path>
    <path d="M123.335 82.1306L123.028 86.893H109.616V86.0848C109.845 86.069 110.148 86.0375 110.526 85.9862C110.905 85.935 111.153 85.8877 111.267 85.8325C111.511 85.7182 111.677 85.5723 111.775 85.387C111.87 85.2057 111.917 84.9731 111.917 84.6932V73.0712C111.917 72.8188 111.874 72.5981 111.791 72.4049C111.708 72.2117 111.535 72.054 111.267 71.9318C111.062 71.8333 110.786 71.7465 110.444 71.6716C110.097 71.5967 109.825 71.5494 109.62 71.5336V70.7255H122.122V74.6205H121.267C121.113 74.0449 120.786 73.4299 120.282 72.7794C119.778 72.1289 119.297 71.7741 118.84 71.715C118.603 71.6835 118.324 71.6637 117.997 71.648C117.67 71.6322 117.299 71.6243 116.882 71.6243H114.344V78.0503H116.165C116.748 78.0503 117.177 77.9951 117.445 77.8847C117.713 77.7744 117.953 77.5891 118.158 77.3328C118.324 77.112 118.466 76.8203 118.584 76.4497C118.702 76.0792 118.781 75.7322 118.816 75.409H119.671V81.7443H118.816C118.785 81.3816 118.706 80.9952 118.572 80.5892C118.438 80.1831 118.3 79.8874 118.158 79.7061C117.922 79.4104 117.654 79.2173 117.354 79.1266C117.055 79.0359 116.657 78.9886 116.165 78.9886H114.344V83.8337C114.344 84.3186 114.38 84.701 114.447 84.9809C114.514 85.2608 114.648 85.4737 114.845 85.6196C115.042 85.7655 115.314 85.8561 115.652 85.8995C115.995 85.9429 116.48 85.9626 117.11 85.9626H118.099C118.509 85.9626 118.856 85.9468 119.135 85.9192C119.423 85.8877 119.722 85.8325 120.03 85.7536C120.337 85.6748 120.554 85.5644 120.684 85.4304C121.034 85.0677 121.401 84.5118 121.783 83.7746C122.165 83.0334 122.41 82.4894 122.516 82.1385H123.335V82.1306Z" fill="white"></path>
    <path d="M136.44 79.4774C136.783 79.8559 137.035 80.2738 137.197 80.7272C137.358 81.1805 137.441 81.7049 137.441 82.3041C137.441 83.7312 136.913 84.91 135.857 85.8364C134.801 86.7629 133.493 87.2281 131.929 87.2281C131.208 87.2281 130.487 87.1177 129.766 86.893C129.045 86.6683 128.422 86.3962 127.898 86.0769L127.41 86.9087H126.499L126.342 81.3737H127.264C127.453 82.0557 127.674 82.6747 127.93 83.2266C128.186 83.7785 128.521 84.291 128.938 84.772C129.332 85.2214 129.793 85.5762 130.321 85.8443C130.849 86.1084 131.46 86.2425 132.161 86.2425C132.685 86.2425 133.142 86.1755 133.532 86.0375C133.922 85.8995 134.242 85.7063 134.482 85.454C134.726 85.2017 134.904 84.91 135.022 84.5709C135.14 84.2319 135.199 83.8416 135.199 83.4001C135.199 82.7535 135.018 82.1503 134.651 81.5905C134.289 81.0307 133.745 80.6089 133.024 80.3172C132.532 80.12 131.964 79.9032 131.326 79.6667C130.688 79.4301 130.14 79.2015 129.675 78.9925C128.765 78.5825 128.056 78.0464 127.551 77.3801C127.047 76.7178 126.795 75.8465 126.795 74.7782C126.795 74.1632 126.921 73.5915 127.169 73.0593C127.421 72.5271 127.776 72.054 128.241 71.6361C128.682 71.2419 129.202 70.9305 129.801 70.7097C130.4 70.485 131.027 70.3746 131.681 70.3746C132.425 70.3746 133.091 70.4889 133.678 70.7176C134.265 70.9462 134.805 71.2104 135.29 71.5139L135.755 70.7412H136.665L136.755 76.1067H135.833C135.668 75.4917 135.479 74.9043 135.27 74.3406C135.061 73.7808 134.789 73.2683 134.454 72.8149C134.127 72.3734 133.729 72.0225 133.261 71.7623C132.792 71.5021 132.212 71.3681 131.531 71.3681C130.81 71.3681 130.195 71.6007 129.687 72.0619C129.179 72.5271 128.923 73.0909 128.923 73.7611C128.923 74.4313 129.084 75.0384 129.411 75.4996C129.738 75.9609 130.211 76.3354 130.833 76.635C131.389 76.8992 131.933 77.1318 132.469 77.3249C133.004 77.5181 133.521 77.727 134.021 77.9478C134.478 78.1449 134.915 78.3696 135.337 78.618C135.759 78.8664 136.125 79.1621 136.436 79.4971L136.44 79.4774Z" fill="white"></path>
    <path d="M103.411 0C103.533 2.21953 103.616 4.44301 103.718 6.66254L103.951 13.3251C104.018 15.5446 104.219 17.7681 104.104 19.9876C104.002 22.2072 103.836 24.4306 103.407 26.6502H103.253C102.828 24.4306 102.662 22.2072 102.556 19.9876C102.442 17.7681 102.643 15.5446 102.71 13.3251L102.942 6.66254C103.044 4.44301 103.127 2.21953 103.249 0H103.403H103.411Z" fill="#FFC20E"></path>
    <path d="M58.667 44.6154C60.8852 44.4932 63.1074 44.4104 65.3257 44.3079L71.9844 44.0753C74.2026 44.0083 76.4248 43.8072 78.643 43.9215C80.8613 44.024 83.0835 44.1896 85.3017 44.6193V44.7731C83.0835 45.1989 80.8613 45.3644 78.643 45.4709C76.4248 45.5852 74.2026 45.3841 71.9844 45.3171L65.3257 45.0845C63.1074 44.982 60.8852 44.8992 58.667 44.777V44.6233V44.6154Z" fill="#FFC20E"></path>
    <path d="M148 44.7691C145.782 44.8914 143.56 44.9741 141.341 45.0766L134.683 45.3092C132.464 45.3763 130.242 45.5773 128.024 45.463C125.806 45.3605 123.583 45.1949 121.365 44.7652V44.6115C123.583 44.1857 125.806 44.0201 128.024 43.9137C130.242 43.7993 132.464 44.0004 134.683 44.0674L141.341 44.3C143.56 44.4025 145.782 44.4853 148 44.6075V44.7613V44.7691Z" fill="#FFC20E"></path>
    <path d="M142.054 22.4122C140.194 23.6303 138.311 24.8131 136.439 26.0115L130.786 29.5439C128.898 30.7108 127.074 31.996 125.096 33.0092C123.122 34.0302 121.117 34.9961 118.981 35.7373L118.902 35.6032C120.612 34.1248 122.452 32.8672 124.324 31.6688C126.191 30.4585 128.213 29.5241 130.171 28.4715L136.053 25.3413C138.027 24.3203 139.993 23.2795 141.975 22.2781L142.054 22.4122Z" fill="#FFC20E"></path>
    <path d="M116.177 66.8383C115.747 66.3613 115.353 65.8646 114.936 65.3757C114.534 64.8829 114.144 64.3823 113.761 63.8737C113.383 63.3651 112.879 62.9315 112.654 62.3322C112.532 62.0366 112.43 61.733 112.363 61.4018C112.292 61.0746 112.248 60.7356 112.276 60.3492L112.41 60.2704C112.761 60.4281 113.044 60.6252 113.296 60.842C113.556 61.0549 113.777 61.2875 113.982 61.5359C114.408 62.0169 114.553 62.6634 114.825 63.239C115.093 63.8146 115.353 64.3941 115.601 64.9815C115.838 65.5768 116.09 66.1602 116.311 66.7634L116.177 66.8423V66.8383Z" fill="#FFC20E"></path>
    <path d="M81.0666 5.94898C82.2841 7.80976 83.4661 9.6942 84.6638 11.5668L88.1941 17.2241C89.3604 19.1124 90.6448 20.9377 91.6574 22.9168C92.6779 24.8919 93.6432 26.8985 94.3839 29.0353L94.25 29.1141C92.7725 27.4032 91.5156 25.5621 90.3178 23.6895C89.1082 21.8208 88.1744 19.7984 87.1224 17.8391L83.994 11.9532C82.9736 9.97805 81.9334 8.01082 80.9326 6.02783L81.0666 5.94898Z" fill="#FFC20E"></path>
    <path d="M64.6921 22.2781C66.6779 23.2834 68.64 24.3203 70.614 25.3413L76.4965 28.4715C78.4507 29.5241 80.4759 30.4624 82.3435 31.6688C84.215 32.8712 86.055 34.1248 87.765 35.6032L87.6862 35.7373C85.5507 34.9961 83.5452 34.0302 81.5712 33.0092C79.5933 31.996 77.7691 30.7108 75.8818 29.5439L70.2278 26.0115C68.3563 24.8091 66.4769 23.6303 64.6133 22.4122L64.6921 22.2781Z" fill="#FFC20E"></path>
    <path d="M141.447 66.7831C139.509 65.8054 137.586 64.7923 135.655 63.7988L129.903 60.7474C127.992 59.7224 126.01 58.8117 124.19 57.629C122.362 56.4542 120.569 55.2281 118.902 53.7734L118.981 53.6394C121.073 54.353 123.035 55.2952 124.966 56.2886C126.901 57.2742 128.682 58.5318 130.525 59.6751L136.045 63.1286C137.874 64.3034 139.71 65.4585 141.526 66.6491L141.447 66.7831Z" fill="#FFC20E"></path>
    <path d="M125.735 6.02783C124.73 8.01476 123.694 9.97805 122.673 11.9532L119.545 17.8391C118.493 19.7945 117.555 21.8208 116.349 23.6895C115.148 25.5621 113.895 27.4032 112.417 29.1141L112.283 29.0353C113.024 26.8985 113.989 24.8919 115.01 22.9168C116.022 20.9377 117.307 19.1124 118.473 17.2241L122.003 11.5668C123.205 9.6942 124.383 7.81371 125.601 5.94898L125.735 6.02783Z" fill="#FFC20E"></path>
    <path d="M109.868 5.79523C109.699 7.56928 109.486 9.33545 109.297 11.1056L108.651 16.404C108.426 18.1663 108.331 19.9521 107.929 21.6868C107.535 23.4214 107.082 25.1481 106.369 26.8315L106.216 26.8079C106.086 24.9865 106.216 23.2046 106.405 21.4345C106.586 19.6644 107.074 17.9416 107.433 16.199L108.536 10.9794C108.93 9.24477 109.301 7.50226 109.714 5.77158L109.868 5.79523Z" fill="#FFC20E"></path>
    <path d="M64.5266 38.0869C66.2996 38.2564 68.0647 38.4693 69.8338 38.6585L75.1292 39.3051C76.8904 39.5298 78.6753 39.6244 80.4089 40.0265C82.1425 40.4207 83.8683 40.8741 85.5507 41.5877L85.527 41.7414C83.7067 41.8715 81.9258 41.7414 80.1567 41.5522C78.3877 41.3708 76.6659 40.882 74.9244 40.5232L69.7077 39.4194C67.9741 39.0252 66.2326 38.6546 64.5029 38.2406L64.5266 38.0869Z" fill="#FFC20E"></path>
    <path d="M142.141 51.1675C140.368 50.998 138.603 50.7851 136.834 50.5959L131.539 49.9494C129.777 49.7247 127.993 49.63 126.259 49.2279C124.525 48.8337 122.8 48.3803 121.117 47.6668L121.141 47.513C122.961 47.3829 124.742 47.513 126.511 47.7022C128.28 47.8836 130.002 48.3724 131.743 48.7312L136.96 49.835C138.694 50.2293 140.435 50.5998 142.165 51.0138L142.141 51.1675Z" fill="#FFC20E"></path>
    <path d="M128.311 14.1963C127.283 15.6511 126.219 17.0782 125.175 18.5171L121.979 22.7906C120.908 24.2099 119.939 25.7119 118.725 27.0168C117.519 28.3257 116.266 29.599 114.813 30.7029L114.694 30.6043C115.49 28.9604 116.487 27.4781 117.531 26.0352C118.567 24.5883 119.848 23.3386 121.026 22.0061L124.58 18.0283C125.786 16.7194 126.972 15.3948 128.193 14.0978L128.311 14.1963Z" fill="#FFC20E"></path>
    <path d="M72.9227 19.6328C74.3766 20.6618 75.8029 21.7262 77.241 22.7709L81.512 25.9682C82.9304 27.0405 84.4316 28.0103 85.7358 29.2245C87.0439 30.4309 88.3165 31.6845 89.4197 33.1393L89.3212 33.2575C87.6782 32.4612 86.1967 31.4638 84.7547 30.419C83.3087 29.3822 82.0597 28.101 80.728 26.9222L76.7524 23.3662C75.4444 22.1599 74.1205 20.9732 72.8242 19.7511L72.9227 19.6328Z" fill="#FFC20E"></path>
    <path d="M130.254 66.858C129.092 66.0577 127.957 65.2259 126.807 64.4098C125.664 63.5859 124.533 62.7501 123.406 61.9025C122.279 61.0589 121.07 60.3177 120.057 59.3361C119.041 58.3623 118.06 57.3373 117.248 56.1152L117.347 55.9969C118.702 56.5646 119.892 57.3294 121.042 58.1455C122.197 58.9537 123.154 60.0023 124.194 60.9485C125.238 61.8946 126.271 62.8487 127.299 63.8145C128.316 64.7883 129.348 65.7463 130.353 66.7398L130.254 66.858Z" fill="#FFC20E"></path>
    <path d="M140.23 30.9315C138.611 31.6688 136.976 32.3666 135.345 33.0841L130.435 35.1656C128.796 35.8516 127.201 36.6598 125.499 37.1762C123.796 37.7005 122.075 38.1657 120.262 38.3865L120.207 38.2406C121.72 37.2196 123.328 36.4429 124.955 35.7254C126.578 34.9961 128.312 34.5664 130.002 34.0066L135.077 32.3587C136.779 31.8343 138.469 31.2903 140.175 30.7857L140.23 30.9315Z" fill="#FFC20E"></path>
    <path d="M89.6477 7.70726C90.3845 9.32756 91.0819 10.9636 91.799 12.5958L93.8793 17.5079C94.5649 19.1479 95.3726 20.7446 95.8888 22.4476C96.4128 24.1507 96.8777 25.8735 97.0984 27.687L96.9526 27.7422C95.9321 26.2283 95.1559 24.6199 94.4388 22.9917C93.7099 21.3674 93.2805 19.6328 92.721 17.9416L91.074 12.8638C90.55 11.1607 90.0063 9.46948 89.502 7.76245L89.6477 7.70726Z" fill="#FFC20E"></path>
    <path d="M111.566 66.8265C111.282 66.4323 111.042 66.0223 110.778 65.6201C110.526 65.2141 110.289 64.8041 110.061 64.3862C109.832 63.9722 109.474 63.6056 109.419 63.1246C109.379 62.8881 109.36 62.6437 109.383 62.3874C109.399 62.1312 109.446 61.8631 109.568 61.5635L109.714 61.5083C110.006 61.6502 110.215 61.8197 110.4 62.0011C110.589 62.1785 110.739 62.3756 110.865 62.5767C111.141 62.9748 111.113 63.4834 111.219 63.9446C111.326 64.4059 111.42 64.8711 111.503 65.3402C111.574 65.8173 111.661 66.2825 111.712 66.7634L111.566 66.8186V66.8265Z" fill="#FFC20E"></path>
    <path d="M116.641 7.56928C116.16 9.28419 115.64 10.9873 115.14 12.6943L113.568 17.7918C113.032 19.487 112.626 21.2295 111.921 22.8655C111.227 24.5055 110.471 26.1219 109.474 27.6515L109.328 27.6003C109.525 25.7829 109.966 24.0522 110.463 22.3451C110.951 20.6342 111.739 19.0257 112.401 17.3778L114.411 12.4341C115.104 10.7941 115.782 9.15016 116.495 7.51803L116.641 7.56928Z" fill="#FFC20E"></path>
    <path d="M66.2993 31.31C68.0132 31.791 69.7153 32.3114 71.4213 32.812L76.5158 34.385C78.21 34.9212 79.9515 35.3273 81.5867 36.0329C83.2257 36.7268 84.8411 37.4837 86.3699 38.4811L86.3186 38.627C84.5023 38.4299 82.7726 37.9883 81.0666 37.4916C79.3566 37.0027 77.749 36.2143 76.1021 35.552L71.1613 33.5414C69.5222 32.8475 67.8792 32.1694 66.248 31.4559L66.2993 31.31Z" fill="#FFC20E"></path>
    <path d="M140.368 57.9405C138.655 57.4595 136.952 56.9391 135.246 56.4384L130.152 54.8655C128.458 54.3293 126.716 53.9232 125.081 53.2176C123.442 52.5237 121.827 51.7668 120.298 50.7694L120.349 50.6235C122.165 50.8206 123.895 51.2622 125.601 51.7589C127.311 52.2477 128.919 53.0362 130.566 53.6985L135.506 55.7091C137.145 56.403 138.788 57.081 140.42 57.7946L140.368 57.9405Z" fill="#FFC20E"></path>
    <path d="M133.304 19.1085C132.035 20.3582 130.735 21.5724 129.454 22.8064L125.554 26.4452C124.246 27.6515 123.028 28.9564 121.602 30.0248C120.184 31.1011 118.726 32.13 117.099 32.9579L117 32.8396C118.072 31.3613 119.317 30.08 120.597 28.8461C121.874 27.6042 123.355 26.6029 124.75 25.499L128.95 22.2111C130.369 21.1348 131.771 20.0428 133.201 18.9823L133.3 19.1006L133.304 19.1085Z" fill="#FFC20E"></path>
    <path d="M77.8282 14.6379C79.0772 15.9073 80.2908 17.2083 81.524 18.4895L85.1607 22.3925C86.3663 23.7013 87.6705 24.9195 88.7382 26.3466C89.8139 27.7659 90.8422 29.2245 91.6696 30.8527L91.5514 30.9513C90.0739 29.8789 88.7934 28.6332 87.5601 27.3519C86.319 26.0746 85.3183 24.5923 84.215 23.1967L80.929 18.9942C79.8534 17.5749 78.762 16.1714 77.7021 14.7404L77.8203 14.6418L77.8282 14.6379Z" fill="#FFC20E"></path>
    <path d="M122.433 66.8501C121.72 66.2273 121.038 65.5768 120.341 64.9421C119.651 64.2995 118.974 63.645 118.308 62.9827C117.638 62.3204 116.866 61.7527 116.334 60.9721C116.058 60.5897 115.802 60.1915 115.577 59.7658C115.349 59.3439 115.14 58.8985 114.998 58.4017L115.112 58.2992C115.589 58.5042 116.003 58.7644 116.393 59.0483C116.787 59.3242 117.149 59.6317 117.496 59.9511C118.201 60.5779 118.67 61.4176 119.241 62.1667C119.813 62.9118 120.376 63.6687 120.928 64.4335C121.472 65.2062 122.027 65.9631 122.555 66.7516L122.441 66.8541L122.433 66.8501Z" fill="#FFC20E"></path>
    <path d="M142.07 37.6848C140.344 38.1224 138.61 38.5205 136.881 38.9384L131.68 40.1172C129.942 40.4996 128.232 41.016 126.463 41.221C124.698 41.4339 122.921 41.5877 121.097 41.4852L121.069 41.3314C122.74 40.5942 124.458 40.1172 126.187 39.6954C127.913 39.2656 129.698 39.1474 131.459 38.899L136.743 38.1776C138.508 37.9647 140.273 37.7281 142.042 37.531L142.07 37.6848Z" fill="#FFC20E"></path>
    <path d="M96.3968 5.86619C96.8342 7.59293 97.2321 9.32756 97.6498 11.0582L98.8278 16.2621C99.21 18.0007 99.7262 19.7117 99.931 21.4818C100.144 23.2479 100.297 25.0259 100.195 26.8512L100.041 26.8788C99.3046 25.2073 98.8278 23.4884 98.4062 21.7577C97.9768 20.031 97.8586 18.2451 97.6104 16.4829L96.8893 11.1962C96.6766 9.43006 96.4402 7.6639 96.2432 5.89379L96.3968 5.86619Z" fill="#FFC20E"></path>
    <path d="M117.591 39.9634L117.583 38.0238H104.344V34.5979H105.676L106.716 32.7371L104.344 32.745V29.7922L101.941 29.8356V32.7529H100.459L99.4941 34.594H101.941V38.0199H88.3438L88.3674 39.9595H89.7661C89.9276 40.0226 90.1286 40.1606 90.3414 40.4799C90.8457 41.2368 93.3515 44.6233 93.9189 44.9544C94.6754 45.396 95.7038 45.7508 96.6612 46.2081C97.6226 46.6615 100.266 47.4618 100.42 48.1162C100.57 48.7745 100.842 49.4605 101.243 50.2726C101.484 50.7536 101.756 51.479 101.941 52.0979V54.006C101.771 54.5264 101.555 55.1178 101.496 55.5317C101.393 56.2413 99.238 61.1771 99.0489 61.7369C98.7494 62.6319 98.1899 66.2391 98.3909 66.6925C98.5918 67.1458 100.077 68.7306 100.077 68.7306C100.077 68.7306 101.263 70.3943 101.937 71.3957V85.2254C101.909 85.3673 101.866 85.4895 101.803 85.5881C101.689 85.7576 101.507 85.8956 101.255 85.9941C101.098 86.0532 100.822 86.1006 100.436 86.1321C100.05 86.1636 99.7541 86.1833 99.5492 86.1991V87.0073H106.827V86.1991C106.574 86.1912 106.271 86.1518 105.908 86.0808C105.546 86.0099 105.29 85.9429 105.128 85.8798C104.86 85.7655 104.675 85.6117 104.565 85.4185C104.455 85.2254 104.399 85.0046 104.399 84.7523V62.2494C104.825 61.7764 105.432 61.2087 105.605 61.2796C105.857 61.3821 106.184 62.214 106.377 62.0523C106.846 61.662 106.677 60.16 107.453 59.7737C107.772 59.612 106.649 58.8669 106.496 58.5121C106.346 58.1573 107.051 56.7933 106.949 55.7801C106.846 54.7669 106.192 53.1505 106.192 53.1505C106.192 53.1505 106.598 51.3804 106.598 50.7221V49.4053L106.917 46.9177C106.917 46.9177 110.782 45.5694 112.047 44.71C112.646 44.3039 112.989 43.9215 113.241 43.5155C113.493 43.1094 114.959 40.9411 115.061 40.5351C115.108 40.3537 115.203 40.1448 115.329 39.9516H117.595L117.591 39.9634ZM100.385 43.0463C99.7778 43.7047 99.2222 44.6154 99.4744 45.12C99.7265 45.6246 98.6667 44.7888 97.6226 44.6036C96.9291 44.4813 94.7424 43.9018 94.4902 43.4958C94.2381 43.0897 93.6786 42.1278 92.9536 41.5285C92.6423 41.2683 91.8189 40.401 91.5785 39.9595H101.937V42.861C101.515 42.7664 100.869 42.5141 100.381 43.0424L100.385 43.0463ZM100.842 65.5373C101.228 64.4887 101.712 63.7318 101.941 63.4282V68.0171C101.448 67.0157 100.688 65.9631 100.842 65.5373ZM112.059 42.388C111.909 42.589 111.653 42.8413 111.302 43.0976C110.948 43.3499 108.119 44.7139 108.119 44.7139C108.119 44.7139 106.854 44.7652 106.046 44.8164C105.278 44.8638 104.427 45.049 104.344 45.0648V39.9634H113.875C113.138 40.744 112.177 42.2342 112.059 42.388Z" fill="#FFC20E"></path>
  </g>
  <defs>
    <clipPath id="clip0_271_1114">
      <rect width="148" height="102" fill="white"></rect>
    </clipPath>
  </defs>
</svg>
